solid OpenSCAD_Model
  facet normal -1 0 0
    outer loop
      vertex 128.45 40.59 2
      vertex 128.45 29.45 2
      vertex 128.45 40.59 34.15
    endloop
  endfacet
  facet normal -1 0 0
    outer loop
      vertex 128.45 54.39 34.15
      vertex 128.45 65.33 2
      vertex 128.45 54.39 2
    endloop
  endfacet
  facet normal -1 0 0
    outer loop
      vertex 128.45 65.33 2
      vertex 128.45 54.39 34.15
      vertex 128.45 65.33 44
    endloop
  endfacet
  facet normal -1 0 0
    outer loop
      vertex 128.45 40.59 34.15
      vertex 128.45 65.33 44
      vertex 128.45 54.39 34.15
    endloop
  endfacet
  facet normal -1 0 0
    outer loop
      vertex 128.45 40.59 34.15
      vertex 128.45 29.45 44
      vertex 128.45 65.33 44
    endloop
  endfacet
  facet normal -1 0 0
    outer loop
      vertex 128.45 29.45 44
      vertex 128.45 40.59 34.15
      vertex 128.45 29.45 2
    endloop
  endfacet
  facet normal 0 0 1
    outer loop
      vertex 160.77 65.33 44
      vertex 158.97 63.53 44
      vertex 160.77 63.33 44
    endloop
  endfacet
  facet normal 0 0 1
    outer loop
      vertex 160.77 65.33 44
      vertex 130.45 63.53 44
      vertex 158.97 63.53 44
    endloop
  endfacet
  facet normal 0 0 1
    outer loop
      vertex 130.45 63.53 44
      vertex 128.45 65.33 44
      vertex 130.45 31.45 44
    endloop
  endfacet
  facet normal -0 0 1
    outer loop
      vertex 128.45 65.33 44
      vertex 130.45 63.53 44
      vertex 160.77 65.33 44
    endloop
  endfacet
  facet normal 0 0 1
    outer loop
      vertex 160.77 63.33 44
      vertex 158.97 63.53 44
      vertex 158.97 63.33 44
    endloop
  endfacet
  facet normal -0 0 1
    outer loop
      vertex 130.45 31.45 44
      vertex 160.77 29.45 44
      vertex 160.77 31.45 44
    endloop
  endfacet
  facet normal 0 0 1
    outer loop
      vertex 130.45 31.45 44
      vertex 128.45 29.45 44
      vertex 160.77 29.45 44
    endloop
  endfacet
  facet normal 0 0 1
    outer loop
      vertex 128.45 29.45 44
      vertex 130.45 31.45 44
      vertex 128.45 65.33 44
    endloop
  endfacet
  facet normal 1 0 0
    outer loop
      vertex 160.77 31.45 44
      vertex 160.77 29.45 44
      vertex 160.77 31.45 14
    endloop
  endfacet
  facet normal 1 0 0
    outer loop
      vertex 160.77 63.33 14
      vertex 160.77 65.33 44
      vertex 160.77 63.33 44
    endloop
  endfacet
  facet normal 1 0 0
    outer loop
      vertex 160.77 65.33 44
      vertex 160.77 63.33 14
      vertex 160.77 65.33 2
    endloop
  endfacet
  facet normal 1 -0 0
    outer loop
      vertex 160.77 31.45 14
      vertex 160.77 65.33 2
      vertex 160.77 63.33 14
    endloop
  endfacet
  facet normal 1 0 0
    outer loop
      vertex 160.77 31.45 14
      vertex 160.77 29.45 2
      vertex 160.77 65.33 2
    endloop
  endfacet
  facet normal 1 0 0
    outer loop
      vertex 160.77 29.45 2
      vertex 160.77 31.45 14
      vertex 160.77 29.45 44
    endloop
  endfacet
  facet normal 0 1 -0
    outer loop
      vertex 160.77 65.33 2
      vertex 128.45 65.33 44
      vertex 160.77 65.33 44
    endloop
  endfacet
  facet normal 0 1 0
    outer loop
      vertex 128.45 65.33 44
      vertex 160.77 65.33 2
      vertex 128.45 65.33 2
    endloop
  endfacet
  facet normal 0 0 1
    outer loop
      vertex 185.57 90.13 2
      vertex 175.57 15.85 2
      vertex 185.57 4.65 2
    endloop
  endfacet
  facet normal 0 0 1
    outer loop
      vertex 185.57 90.13 2
      vertex 160.77 65.33 2
      vertex 175.57 15.85 2
    endloop
  endfacet
  facet normal -0 0 1
    outer loop
      vertex 114.85 80.13 2
      vertex 160.77 65.33 2
      vertex 185.57 90.13 2
    endloop
  endfacet
  facet normal 0 0 1
    outer loop
      vertex 114.85 80.13 2
      vertex 128.45 54.39 2
      vertex 128.45 65.33 2
    endloop
  endfacet
  facet normal 0 0 1
    outer loop
      vertex 114.85 24.65 2
      vertex 128.45 54.39 2
      vertex 114.85 80.13 2
    endloop
  endfacet
  facet normal 0 0 1
    outer loop
      vertex 128.45 40.59 2
      vertex 114.85 24.65 2
      vertex 128.45 29.45 2
    endloop
  endfacet
  facet normal 0 0 1
    outer loop
      vertex 128.45 29.45 2
      vertex 114.85 24.65 2
      vertex 123.65 15.85 2
    endloop
  endfacet
  facet normal 0 0 1
    outer loop
      vertex 128.45 54.39 2
      vertex 114.85 24.65 2
      vertex 128.45 40.59 2
    endloop
  endfacet
  facet normal 0 0 1
    outer loop
      vertex 160.77 65.33 2
      vertex 114.85 80.13 2
      vertex 128.45 65.33 2
    endloop
  endfacet
  facet normal -0 0 1
    outer loop
      vertex 103.65 90.13 2
      vertex 114.85 80.13 2
      vertex 185.57 90.13 2
    endloop
  endfacet
  facet normal 0 0 1
    outer loop
      vertex 108.65 80.13 2
      vertex 103.65 90.13 2
      vertex 108.65 24.65 2
    endloop
  endfacet
  facet normal 0 0 1
    outer loop
      vertex 114.85 80.13 2
      vertex 103.65 90.13 2
      vertex 108.65 80.13 2
    endloop
  endfacet
  facet normal -0 0 1
    outer loop
      vertex 175.57 9.65 2
      vertex 185.57 4.65 2
      vertex 175.57 15.85 2
    endloop
  endfacet
  facet normal -0 0 1
    outer loop
      vertex 123.65 9.65 2
      vertex 185.57 4.65 2
      vertex 175.57 9.65 2
    endloop
  endfacet
  facet normal 0 0 1
    outer loop
      vertex 103.65 4.65 2
      vertex 123.65 15.85 2
      vertex 114.85 24.65 2
    endloop
  endfacet
  facet normal 0 0 1
    outer loop
      vertex 103.65 4.65 2
      vertex 114.85 24.65 2
      vertex 108.65 24.65 2
    endloop
  endfacet
  facet normal 0 0 1
    outer loop
      vertex 123.65 9.65 2
      vertex 103.65 4.65 2
      vertex 185.57 4.65 2
    endloop
  endfacet
  facet normal 0 0 1
    outer loop
      vertex 123.65 15.85 2
      vertex 103.65 4.65 2
      vertex 123.65 9.65 2
    endloop
  endfacet
  facet normal 0 0 1
    outer loop
      vertex 103.65 4.65 2
      vertex 108.65 24.65 2
      vertex 103.65 90.13 2
    endloop
  endfacet
  facet normal -0 0 1
    outer loop
      vertex 160.77 29.45 2
      vertex 175.57 15.85 2
      vertex 160.77 65.33 2
    endloop
  endfacet
  facet normal 0 0 1
    outer loop
      vertex 123.65 15.85 2
      vertex 160.77 29.45 2
      vertex 128.45 29.45 2
    endloop
  endfacet
  facet normal 0 0 1
    outer loop
      vertex 160.77 29.45 2
      vertex 123.65 15.85 2
      vertex 175.57 15.85 2
    endloop
  endfacet
  facet normal -0 0 1
    outer loop
      vertex 128.45 54.39 2
      vertex 135.45 40.59 2
      vertex 135.45 54.39 2
    endloop
  endfacet
  facet normal 0 0 1
    outer loop
      vertex 135.45 40.59 2
      vertex 128.45 54.39 2
      vertex 128.45 40.59 2
    endloop
  endfacet
  facet normal 0 -1 0
    outer loop
      vertex 128.45 29.45 2
      vertex 160.77 29.45 44
      vertex 128.45 29.45 44
    endloop
  endfacet
  facet normal 0 -1 -0
    outer loop
      vertex 160.77 29.45 44
      vertex 128.45 29.45 2
      vertex 160.77 29.45 2
    endloop
  endfacet
  facet normal 1 0 0
    outer loop
      vertex 130.45 63.53 44
      vertex 130.45 54.39 34.15
      vertex 130.45 63.53 3
    endloop
  endfacet
  facet normal 1 0 0
    outer loop
      vertex 130.45 63.53 44
      vertex 130.45 40.59 34.15
      vertex 130.45 54.39 34.15
    endloop
  endfacet
  facet normal 1 -0 0
    outer loop
      vertex 130.45 31.45 44
      vertex 130.45 40.59 34.15
      vertex 130.45 63.53 44
    endloop
  endfacet
  facet normal 1 0 0
    outer loop
      vertex 130.45 31.45 3
      vertex 130.45 40.59 34.15
      vertex 130.45 31.45 44
    endloop
  endfacet
  facet normal 1 0 0
    outer loop
      vertex 130.45 40.59 34.15
      vertex 130.45 31.45 3
      vertex 130.45 40.59 3
    endloop
  endfacet
  facet normal 1 0 0
    outer loop
      vertex 130.45 63.53 3
      vertex 130.45 54.39 34.15
      vertex 130.45 54.39 3
    endloop
  endfacet
  facet normal -1 0 0
    outer loop
      vertex 158.97 63.53 3
      vertex 158.97 63.33 14
      vertex 158.97 63.53 44
    endloop
  endfacet
  facet normal -1 0 0
    outer loop
      vertex 158.97 31.45 3
      vertex 158.97 63.33 14
      vertex 158.97 63.53 3
    endloop
  endfacet
  facet normal -1 -0 0
    outer loop
      vertex 158.97 63.33 14
      vertex 158.97 31.45 3
      vertex 158.97 31.45 14
    endloop
  endfacet
  facet normal -1 -0 0
    outer loop
      vertex 158.97 63.53 44
      vertex 158.97 63.33 14
      vertex 158.97 63.33 44
    endloop
  endfacet
  facet normal 0 0 1
    outer loop
      vertex 158.97 63.53 3
      vertex 135.45 54.39 3
      vertex 158.97 31.45 3
    endloop
  endfacet
  facet normal -0 0 1
    outer loop
      vertex 130.45 63.53 3
      vertex 135.45 54.39 3
      vertex 158.97 63.53 3
    endloop
  endfacet
  facet normal 0 0 1
    outer loop
      vertex 135.45 54.39 3
      vertex 130.45 63.53 3
      vertex 130.45 54.39 3
    endloop
  endfacet
  facet normal -0 0 1
    outer loop
      vertex 135.45 40.59 3
      vertex 158.97 31.45 3
      vertex 135.45 54.39 3
    endloop
  endfacet
  facet normal 0 0 1
    outer loop
      vertex 130.45 31.45 3
      vertex 135.45 40.59 3
      vertex 130.45 40.59 3
    endloop
  endfacet
  facet normal 0 0 1
    outer loop
      vertex 135.45 40.59 3
      vertex 130.45 31.45 3
      vertex 158.97 31.45 3
    endloop
  endfacet
  facet normal 0 1 0
    outer loop
      vertex 158.97 31.45 14
      vertex 160.77 31.45 44
      vertex 160.77 31.45 14
    endloop
  endfacet
  facet normal 0 1 0
    outer loop
      vertex 160.77 31.45 44
      vertex 158.97 31.45 14
      vertex 130.45 31.45 44
    endloop
  endfacet
  facet normal 0 1 0
    outer loop
      vertex 130.45 31.45 3
      vertex 158.97 31.45 14
      vertex 158.97 31.45 3
    endloop
  endfacet
  facet normal 0 1 0
    outer loop
      vertex 158.97 31.45 14
      vertex 130.45 31.45 3
      vertex 130.45 31.45 44
    endloop
  endfacet
  facet normal 0 -1 0
    outer loop
      vertex 130.45 63.53 3
      vertex 158.97 63.53 44
      vertex 130.45 63.53 44
    endloop
  endfacet
  facet normal 0 -1 -0
    outer loop
      vertex 158.97 63.53 44
      vertex 130.45 63.53 3
      vertex 158.97 63.53 3
    endloop
  endfacet
  facet normal 0 0 -1
    outer loop
      vertex 128.45 40.59 34.15
      vertex 130.45 54.39 34.15
      vertex 130.45 40.59 34.15
    endloop
  endfacet
  facet normal -0 0 -1
    outer loop
      vertex 130.45 54.39 34.15
      vertex 128.45 40.59 34.15
      vertex 128.45 54.39 34.15
    endloop
  endfacet
  facet normal -1 0 0
    outer loop
      vertex 135.45 40.59 2
      vertex 135.45 54.39 3
      vertex 135.45 54.39 2
    endloop
  endfacet
  facet normal -1 -0 0
    outer loop
      vertex 135.45 54.39 3
      vertex 135.45 40.59 2
      vertex 135.45 40.59 3
    endloop
  endfacet
  facet normal 0 1 0
    outer loop
      vertex 135.45 40.59 3
      vertex 135.45 40.59 2
      vertex 130.45 40.59 3
    endloop
  endfacet
  facet normal 0 1 -0
    outer loop
      vertex 130.45 40.59 3
      vertex 128.45 40.59 34.15
      vertex 130.45 40.59 34.15
    endloop
  endfacet
  facet normal 0 1 0
    outer loop
      vertex 130.45 40.59 3
      vertex 128.45 40.59 2
      vertex 128.45 40.59 34.15
    endloop
  endfacet
  facet normal 0 1 0
    outer loop
      vertex 128.45 40.59 2
      vertex 130.45 40.59 3
      vertex 135.45 40.59 2
    endloop
  endfacet
  facet normal 0 -1 0
    outer loop
      vertex 128.45 54.39 34.15
      vertex 130.45 54.39 3
      vertex 130.45 54.39 34.15
    endloop
  endfacet
  facet normal 0 -1 0
    outer loop
      vertex 128.45 54.39 2
      vertex 130.45 54.39 3
      vertex 128.45 54.39 34.15
    endloop
  endfacet
  facet normal 0 -1 0
    outer loop
      vertex 135.45 54.39 2
      vertex 130.45 54.39 3
      vertex 128.45 54.39 2
    endloop
  endfacet
  facet normal 0 -1 0
    outer loop
      vertex 130.45 54.39 3
      vertex 135.45 54.39 2
      vertex 135.45 54.39 3
    endloop
  endfacet
  facet normal 0 -1 0
    outer loop
      vertex 158.97 63.33 14
      vertex 160.77 63.33 44
      vertex 158.97 63.33 44
    endloop
  endfacet
  facet normal 0 -1 -0
    outer loop
      vertex 160.77 63.33 44
      vertex 158.97 63.33 14
      vertex 160.77 63.33 14
    endloop
  endfacet
  facet normal -0 0 1
    outer loop
      vertex 158.97 63.33 14
      vertex 160.77 31.45 14
      vertex 160.77 63.33 14
    endloop
  endfacet
  facet normal 0 0 1
    outer loop
      vertex 160.77 31.45 14
      vertex 158.97 63.33 14
      vertex 158.97 31.45 14
    endloop
  endfacet
  facet normal -1 0 0
    outer loop
      vertex 103.65 4.65 0
      vertex 103.65 90.13 2
      vertex 103.65 90.13 0
    endloop
  endfacet
  facet normal -1 -0 0
    outer loop
      vertex 103.65 90.13 2
      vertex 103.65 4.65 0
      vertex 103.65 4.65 2
    endloop
  endfacet
  facet normal 1 -0 0
    outer loop
      vertex 185.57 4.65 2
      vertex 185.57 90.13 0
      vertex 185.57 90.13 2
    endloop
  endfacet
  facet normal 1 0 0
    outer loop
      vertex 185.57 90.13 0
      vertex 185.57 4.65 2
      vertex 185.57 4.65 0
    endloop
  endfacet
  facet normal 0 0 -1
    outer loop
      vertex 175.57 15.85 0
      vertex 185.57 4.65 0
      vertex 175.57 9.65 0
    endloop
  endfacet
  facet normal 0 0 -1
    outer loop
      vertex 185.57 4.65 0
      vertex 123.65 9.65 0
      vertex 175.57 9.65 0
    endloop
  endfacet
  facet normal 0 0 -1
    outer loop
      vertex 103.65 4.65 0
      vertex 123.65 15.85 0
      vertex 123.65 9.65 0
    endloop
  endfacet
  facet normal -0 0 -1
    outer loop
      vertex 123.65 15.85 0
      vertex 103.65 4.65 0
      vertex 114.85 24.65 0
    endloop
  endfacet
  facet normal 0 0 -1
    outer loop
      vertex 103.65 90.13 0
      vertex 108.65 24.65 0
      vertex 103.65 4.65 0
    endloop
  endfacet
  facet normal -0 0 -1
    outer loop
      vertex 114.85 24.65 0
      vertex 103.65 4.65 0
      vertex 108.65 24.65 0
    endloop
  endfacet
  facet normal 0 0 -1
    outer loop
      vertex 103.65 4.65 0
      vertex 123.65 9.65 0
      vertex 185.57 4.65 0
    endloop
  endfacet
  facet normal 0 0 -1
    outer loop
      vertex 185.57 4.65 0
      vertex 175.57 15.85 0
      vertex 185.57 90.13 0
    endloop
  endfacet
  facet normal 0 0 -1
    outer loop
      vertex 114.85 24.65 0
      vertex 175.57 15.85 0
      vertex 123.65 15.85 0
    endloop
  endfacet
  facet normal 0 0 -1
    outer loop
      vertex 175.57 15.85 0
      vertex 114.85 24.65 0
      vertex 114.85 80.13 0
    endloop
  endfacet
  facet normal 0 0 -1
    outer loop
      vertex 175.57 15.85 0
      vertex 114.85 80.13 0
      vertex 185.57 90.13 0
    endloop
  endfacet
  facet normal 0 0 -1
    outer loop
      vertex 103.65 90.13 0
      vertex 114.85 80.13 0
      vertex 108.65 80.13 0
    endloop
  endfacet
  facet normal 0 0 -1
    outer loop
      vertex 114.85 80.13 0
      vertex 103.65 90.13 0
      vertex 185.57 90.13 0
    endloop
  endfacet
  facet normal 0 0 -1
    outer loop
      vertex 108.65 24.65 0
      vertex 103.65 90.13 0
      vertex 108.65 80.13 0
    endloop
  endfacet
  facet normal 0 -1 0
    outer loop
      vertex 103.65 4.65 0
      vertex 185.57 4.65 2
      vertex 103.65 4.65 2
    endloop
  endfacet
  facet normal 0 -1 -0
    outer loop
      vertex 185.57 4.65 2
      vertex 103.65 4.65 0
      vertex 185.57 4.65 0
    endloop
  endfacet
  facet normal 0 1 -0
    outer loop
      vertex 185.57 90.13 0
      vertex 103.65 90.13 2
      vertex 185.57 90.13 2
    endloop
  endfacet
  facet normal 0 1 0
    outer loop
      vertex 103.65 90.13 2
      vertex 185.57 90.13 0
      vertex 103.65 90.13 0
    endloop
  endfacet
  facet normal 1 -0 0
    outer loop
      vertex 123.65 9.65 2
      vertex 123.65 15.85 0
      vertex 123.65 15.85 2
    endloop
  endfacet
  facet normal 1 0 0
    outer loop
      vertex 123.65 15.85 0
      vertex 123.65 9.65 2
      vertex 123.65 9.65 0
    endloop
  endfacet
  facet normal -1 0 0
    outer loop
      vertex 175.57 9.65 0
      vertex 175.57 15.85 2
      vertex 175.57 15.85 0
    endloop
  endfacet
  facet normal -1 -0 0
    outer loop
      vertex 175.57 15.85 2
      vertex 175.57 9.65 0
      vertex 175.57 9.65 2
    endloop
  endfacet
  facet normal 0 1 -0
    outer loop
      vertex 175.57 9.65 0
      vertex 123.65 9.65 2
      vertex 175.57 9.65 2
    endloop
  endfacet
  facet normal 0 1 0
    outer loop
      vertex 123.65 9.65 2
      vertex 175.57 9.65 0
      vertex 123.65 9.65 0
    endloop
  endfacet
  facet normal 0 -1 0
    outer loop
      vertex 123.65 15.85 0
      vertex 175.57 15.85 2
      vertex 123.65 15.85 2
    endloop
  endfacet
  facet normal 0 -1 -0
    outer loop
      vertex 175.57 15.85 2
      vertex 123.65 15.85 0
      vertex 175.57 15.85 0
    endloop
  endfacet
  facet normal 1 -0 0
    outer loop
      vertex 108.65 24.65 2
      vertex 108.65 80.13 0
      vertex 108.65 80.13 2
    endloop
  endfacet
  facet normal 1 0 0
    outer loop
      vertex 108.65 80.13 0
      vertex 108.65 24.65 2
      vertex 108.65 24.65 0
    endloop
  endfacet
  facet normal -1 0 0
    outer loop
      vertex 114.85 24.65 0
      vertex 114.85 80.13 2
      vertex 114.85 80.13 0
    endloop
  endfacet
  facet normal -1 -0 0
    outer loop
      vertex 114.85 80.13 2
      vertex 114.85 24.65 0
      vertex 114.85 24.65 2
    endloop
  endfacet
  facet normal 0 -1 0
    outer loop
      vertex 108.65 80.13 0
      vertex 114.85 80.13 2
      vertex 108.65 80.13 2
    endloop
  endfacet
  facet normal 0 -1 -0
    outer loop
      vertex 114.85 80.13 2
      vertex 108.65 80.13 0
      vertex 114.85 80.13 0
    endloop
  endfacet
  facet normal 0 1 -0
    outer loop
      vertex 114.85 24.65 0
      vertex 108.65 24.65 2
      vertex 114.85 24.65 2
    endloop
  endfacet
  facet normal 0 1 0
    outer loop
      vertex 108.65 24.65 2
      vertex 114.85 24.65 0
      vertex 108.65 24.65 0
    endloop
  endfacet
endsolid OpenSCAD_Model
