solid OpenSCAD_Model
  facet normal -1 0 0
    outer loop
      vertex 128.45 40.59 2
      vertex 128.45 29.45 2
      vertex 128.45 40.59 31.15
    endloop
  endfacet
  facet normal -1 0 0
    outer loop
      vertex 128.45 54.19 31.15
      vertex 128.45 65.33 2
      vertex 128.45 54.19 2
    endloop
  endfacet
  facet normal -1 0 0
    outer loop
      vertex 128.45 65.33 2
      vertex 128.45 54.19 31.15
      vertex 128.45 65.33 44
    endloop
  endfacet
  facet normal -1 0 0
    outer loop
      vertex 128.45 40.59 31.15
      vertex 128.45 65.33 44
      vertex 128.45 54.19 31.15
    endloop
  endfacet
  facet normal -1 0 0
    outer loop
      vertex 128.45 40.59 31.15
      vertex 128.45 29.45 44
      vertex 128.45 65.33 44
    endloop
  endfacet
  facet normal -1 0 0
    outer loop
      vertex 128.45 29.45 44
      vertex 128.45 40.59 31.15
      vertex 128.45 29.45 2
    endloop
  endfacet
  facet normal 0 0 1
    outer loop
      vertex 160.77 65.33 44
      vertex 158.97 63.53 44
      vertex 160.77 63.33 44
    endloop
  endfacet
  facet normal 0 0 1
    outer loop
      vertex 160.77 65.33 44
      vertex 130.45 63.53 44
      vertex 158.97 63.53 44
    endloop
  endfacet
  facet normal 0 0 1
    outer loop
      vertex 130.45 63.53 44
      vertex 128.45 65.33 44
      vertex 130.45 31.45 44
    endloop
  endfacet
  facet normal -0 0 1
    outer loop
      vertex 128.45 65.33 44
      vertex 130.45 63.53 44
      vertex 160.77 65.33 44
    endloop
  endfacet
  facet normal 0 0 1
    outer loop
      vertex 160.77 63.33 44
      vertex 158.97 63.53 44
      vertex 158.97 63.33 44
    endloop
  endfacet
  facet normal -0 0 1
    outer loop
      vertex 130.45 31.45 44
      vertex 160.77 29.45 44
      vertex 160.77 31.45 44
    endloop
  endfacet
  facet normal 0 0 1
    outer loop
      vertex 130.45 31.45 44
      vertex 128.45 29.45 44
      vertex 160.77 29.45 44
    endloop
  endfacet
  facet normal 0 0 1
    outer loop
      vertex 128.45 29.45 44
      vertex 130.45 31.45 44
      vertex 128.45 65.33 44
    endloop
  endfacet
  facet normal 1 0 0
    outer loop
      vertex 160.77 31.45 44
      vertex 160.77 29.45 44
      vertex 160.77 31.45 18
    endloop
  endfacet
  facet normal 1 0 0
    outer loop
      vertex 160.77 63.33 18
      vertex 160.77 65.33 44
      vertex 160.77 63.33 44
    endloop
  endfacet
  facet normal 1 0 0
    outer loop
      vertex 160.77 65.33 44
      vertex 160.77 63.33 18
      vertex 160.77 65.33 2
    endloop
  endfacet
  facet normal 1 -0 0
    outer loop
      vertex 160.77 31.45 18
      vertex 160.77 65.33 2
      vertex 160.77 63.33 18
    endloop
  endfacet
  facet normal 1 0 0
    outer loop
      vertex 160.77 31.45 18
      vertex 160.77 29.45 2
      vertex 160.77 65.33 2
    endloop
  endfacet
  facet normal 1 0 0
    outer loop
      vertex 160.77 29.45 2
      vertex 160.77 31.45 18
      vertex 160.77 29.45 44
    endloop
  endfacet
  facet normal 0 1 -0
    outer loop
      vertex 160.77 65.33 2
      vertex 128.45 65.33 44
      vertex 160.77 65.33 44
    endloop
  endfacet
  facet normal 0 1 0
    outer loop
      vertex 128.45 65.33 44
      vertex 160.77 65.33 2
      vertex 128.45 65.33 2
    endloop
  endfacet
  facet normal 0 0 1
    outer loop
      vertex 185.57 90.13 2
      vertex 180.57 15.85 2
      vertex 185.57 4.65 2
    endloop
  endfacet
  facet normal 0 0 1
    outer loop
      vertex 185.57 90.13 2
      vertex 160.77 65.33 2
      vertex 180.57 15.85 2
    endloop
  endfacet
  facet normal -0 0 1
    outer loop
      vertex 114.85 85.13 2
      vertex 160.77 65.33 2
      vertex 185.57 90.13 2
    endloop
  endfacet
  facet normal 0 0 1
    outer loop
      vertex 114.85 85.13 2
      vertex 128.45 54.19 2
      vertex 128.45 65.33 2
    endloop
  endfacet
  facet normal 0 0 1
    outer loop
      vertex 114.85 15.85 2
      vertex 128.45 54.19 2
      vertex 114.85 85.13 2
    endloop
  endfacet
  facet normal 0 0 1
    outer loop
      vertex 128.45 54.19 2
      vertex 114.85 15.85 2
      vertex 128.45 40.59 2
    endloop
  endfacet
  facet normal 0 0 1
    outer loop
      vertex 160.77 65.33 2
      vertex 114.85 85.13 2
      vertex 128.45 65.33 2
    endloop
  endfacet
  facet normal -0 0 1
    outer loop
      vertex 103.65 90.13 2
      vertex 114.85 85.13 2
      vertex 185.57 90.13 2
    endloop
  endfacet
  facet normal 0 0 1
    outer loop
      vertex 108.65 85.13 2
      vertex 103.65 90.13 2
      vertex 108.65 9.65 2
    endloop
  endfacet
  facet normal 0 0 1
    outer loop
      vertex 114.85 85.13 2
      vertex 103.65 90.13 2
      vertex 108.65 85.13 2
    endloop
  endfacet
  facet normal -0 0 1
    outer loop
      vertex 180.57 9.65 2
      vertex 185.57 4.65 2
      vertex 180.57 15.85 2
    endloop
  endfacet
  facet normal -0 0 1
    outer loop
      vertex 108.65 9.65 2
      vertex 185.57 4.65 2
      vertex 180.57 9.65 2
    endloop
  endfacet
  facet normal 0 0 1
    outer loop
      vertex 108.65 9.65 2
      vertex 103.65 4.65 2
      vertex 185.57 4.65 2
    endloop
  endfacet
  facet normal 0 0 1
    outer loop
      vertex 103.65 4.65 2
      vertex 108.65 9.65 2
      vertex 103.65 90.13 2
    endloop
  endfacet
  facet normal -0 0 1
    outer loop
      vertex 160.77 29.45 2
      vertex 180.57 15.85 2
      vertex 160.77 65.33 2
    endloop
  endfacet
  facet normal 0 0 1
    outer loop
      vertex 114.85 15.85 2
      vertex 160.77 29.45 2
      vertex 128.45 29.45 2
    endloop
  endfacet
  facet normal 0 0 1
    outer loop
      vertex 160.77 29.45 2
      vertex 114.85 15.85 2
      vertex 180.57 15.85 2
    endloop
  endfacet
  facet normal 0 0 1
    outer loop
      vertex 128.45 40.59 2
      vertex 114.85 15.85 2
      vertex 128.45 29.45 2
    endloop
  endfacet
  facet normal -0 0 1
    outer loop
      vertex 128.45 54.19 2
      vertex 135.45 40.59 2
      vertex 135.45 54.19 2
    endloop
  endfacet
  facet normal 0 0 1
    outer loop
      vertex 135.45 40.59 2
      vertex 128.45 54.19 2
      vertex 128.45 40.59 2
    endloop
  endfacet
  facet normal 0 -1 0
    outer loop
      vertex 128.45 29.45 2
      vertex 160.77 29.45 44
      vertex 128.45 29.45 44
    endloop
  endfacet
  facet normal 0 -1 -0
    outer loop
      vertex 160.77 29.45 44
      vertex 128.45 29.45 2
      vertex 160.77 29.45 2
    endloop
  endfacet
  facet normal 1 0 0
    outer loop
      vertex 130.45 63.53 44
      vertex 130.45 54.19 31.15
      vertex 130.45 63.53 3
    endloop
  endfacet
  facet normal 1 -0 0
    outer loop
      vertex 130.45 31.45 44
      vertex 130.45 54.19 31.15
      vertex 130.45 63.53 44
    endloop
  endfacet
  facet normal 1 0 0
    outer loop
      vertex 130.45 54.19 31.15
      vertex 130.45 31.45 44
      vertex 130.45 40.59 31.15
    endloop
  endfacet
  facet normal 1 0 0
    outer loop
      vertex 130.45 31.45 3
      vertex 130.45 40.59 31.15
      vertex 130.45 31.45 44
    endloop
  endfacet
  facet normal 1 0 0
    outer loop
      vertex 130.45 40.59 31.15
      vertex 130.45 31.45 3
      vertex 130.45 40.59 3
    endloop
  endfacet
  facet normal 1 0 0
    outer loop
      vertex 130.45 63.53 3
      vertex 130.45 54.19 31.15
      vertex 130.45 54.19 3
    endloop
  endfacet
  facet normal -1 0 0
    outer loop
      vertex 158.97 63.53 3
      vertex 158.97 63.33 18
      vertex 158.97 63.53 44
    endloop
  endfacet
  facet normal -1 0 0
    outer loop
      vertex 158.97 31.45 3
      vertex 158.97 63.33 18
      vertex 158.97 63.53 3
    endloop
  endfacet
  facet normal -1 -0 0
    outer loop
      vertex 158.97 63.33 18
      vertex 158.97 31.45 3
      vertex 158.97 31.45 18
    endloop
  endfacet
  facet normal -1 -0 0
    outer loop
      vertex 158.97 63.53 44
      vertex 158.97 63.33 18
      vertex 158.97 63.33 44
    endloop
  endfacet
  facet normal 0 -1 0
    outer loop
      vertex 130.45 63.53 3
      vertex 158.97 63.53 44
      vertex 130.45 63.53 44
    endloop
  endfacet
  facet normal 0 -1 -0
    outer loop
      vertex 158.97 63.53 44
      vertex 130.45 63.53 3
      vertex 158.97 63.53 3
    endloop
  endfacet
  facet normal 0 0 1
    outer loop
      vertex 158.97 63.53 3
      vertex 135.45 54.19 3
      vertex 158.97 31.45 3
    endloop
  endfacet
  facet normal -0 0 1
    outer loop
      vertex 130.45 63.53 3
      vertex 135.45 54.19 3
      vertex 158.97 63.53 3
    endloop
  endfacet
  facet normal 0 0 1
    outer loop
      vertex 135.45 54.19 3
      vertex 130.45 63.53 3
      vertex 130.45 54.19 3
    endloop
  endfacet
  facet normal -0 0 1
    outer loop
      vertex 135.45 40.59 3
      vertex 158.97 31.45 3
      vertex 135.45 54.19 3
    endloop
  endfacet
  facet normal 0 0 1
    outer loop
      vertex 130.45 31.45 3
      vertex 135.45 40.59 3
      vertex 130.45 40.59 3
    endloop
  endfacet
  facet normal 0 0 1
    outer loop
      vertex 135.45 40.59 3
      vertex 130.45 31.45 3
      vertex 158.97 31.45 3
    endloop
  endfacet
  facet normal 0 1 0
    outer loop
      vertex 158.97 31.45 18
      vertex 160.77 31.45 44
      vertex 160.77 31.45 18
    endloop
  endfacet
  facet normal 0 1 0
    outer loop
      vertex 160.77 31.45 44
      vertex 158.97 31.45 18
      vertex 130.45 31.45 44
    endloop
  endfacet
  facet normal 0 1 0
    outer loop
      vertex 130.45 31.45 3
      vertex 158.97 31.45 18
      vertex 158.97 31.45 3
    endloop
  endfacet
  facet normal 0 1 0
    outer loop
      vertex 158.97 31.45 18
      vertex 130.45 31.45 3
      vertex 130.45 31.45 44
    endloop
  endfacet
  facet normal 0 0 -1
    outer loop
      vertex 128.45 40.59 31.15
      vertex 130.45 54.19 31.15
      vertex 130.45 40.59 31.15
    endloop
  endfacet
  facet normal -0 0 -1
    outer loop
      vertex 130.45 54.19 31.15
      vertex 128.45 40.59 31.15
      vertex 128.45 54.19 31.15
    endloop
  endfacet
  facet normal -1 0 0
    outer loop
      vertex 135.45 40.59 2
      vertex 135.45 54.19 3
      vertex 135.45 54.19 2
    endloop
  endfacet
  facet normal -1 -0 0
    outer loop
      vertex 135.45 54.19 3
      vertex 135.45 40.59 2
      vertex 135.45 40.59 3
    endloop
  endfacet
  facet normal 0 -1 0
    outer loop
      vertex 128.45 54.19 31.15
      vertex 130.45 54.19 3
      vertex 130.45 54.19 31.15
    endloop
  endfacet
  facet normal 0 -1 0
    outer loop
      vertex 128.45 54.19 2
      vertex 130.45 54.19 3
      vertex 128.45 54.19 31.15
    endloop
  endfacet
  facet normal 0 -1 0
    outer loop
      vertex 135.45 54.19 2
      vertex 130.45 54.19 3
      vertex 128.45 54.19 2
    endloop
  endfacet
  facet normal 0 -1 0
    outer loop
      vertex 130.45 54.19 3
      vertex 135.45 54.19 2
      vertex 135.45 54.19 3
    endloop
  endfacet
  facet normal 0 1 0
    outer loop
      vertex 135.45 40.59 3
      vertex 135.45 40.59 2
      vertex 130.45 40.59 3
    endloop
  endfacet
  facet normal 0 1 -0
    outer loop
      vertex 130.45 40.59 3
      vertex 128.45 40.59 31.15
      vertex 130.45 40.59 31.15
    endloop
  endfacet
  facet normal 0 1 0
    outer loop
      vertex 130.45 40.59 3
      vertex 128.45 40.59 2
      vertex 128.45 40.59 31.15
    endloop
  endfacet
  facet normal 0 1 0
    outer loop
      vertex 128.45 40.59 2
      vertex 130.45 40.59 3
      vertex 135.45 40.59 2
    endloop
  endfacet
  facet normal 0 -1 0
    outer loop
      vertex 158.97 63.33 18
      vertex 160.77 63.33 44
      vertex 158.97 63.33 44
    endloop
  endfacet
  facet normal 0 -1 -0
    outer loop
      vertex 160.77 63.33 44
      vertex 158.97 63.33 18
      vertex 160.77 63.33 18
    endloop
  endfacet
  facet normal -0 0 1
    outer loop
      vertex 158.97 63.33 18
      vertex 160.77 31.45 18
      vertex 160.77 63.33 18
    endloop
  endfacet
  facet normal 0 0 1
    outer loop
      vertex 160.77 31.45 18
      vertex 158.97 63.33 18
      vertex 158.97 31.45 18
    endloop
  endfacet
  facet normal -1 0 0
    outer loop
      vertex 103.65 4.65 0
      vertex 103.65 90.13 2
      vertex 103.65 90.13 0
    endloop
  endfacet
  facet normal -1 -0 0
    outer loop
      vertex 103.65 90.13 2
      vertex 103.65 4.65 0
      vertex 103.65 4.65 2
    endloop
  endfacet
  facet normal 1 -0 0
    outer loop
      vertex 185.57 4.65 2
      vertex 185.57 90.13 0
      vertex 185.57 90.13 2
    endloop
  endfacet
  facet normal 1 0 0
    outer loop
      vertex 185.57 90.13 0
      vertex 185.57 4.65 2
      vertex 185.57 4.65 0
    endloop
  endfacet
  facet normal 0 1 -0
    outer loop
      vertex 185.57 90.13 0
      vertex 103.65 90.13 2
      vertex 185.57 90.13 2
    endloop
  endfacet
  facet normal 0 1 0
    outer loop
      vertex 103.65 90.13 2
      vertex 185.57 90.13 0
      vertex 103.65 90.13 0
    endloop
  endfacet
  facet normal 0 0 -1
    outer loop
      vertex 180.57 15.85 0
      vertex 185.57 4.65 0
      vertex 180.57 9.65 0
    endloop
  endfacet
  facet normal 0 0 -1
    outer loop
      vertex 185.57 4.65 0
      vertex 108.65 9.65 0
      vertex 180.57 9.65 0
    endloop
  endfacet
  facet normal -0 0 -1
    outer loop
      vertex 108.65 9.65 0
      vertex 103.65 4.65 0
      vertex 108.65 85.13 0
    endloop
  endfacet
  facet normal 0 0 -1
    outer loop
      vertex 103.65 4.65 0
      vertex 108.65 9.65 0
      vertex 185.57 4.65 0
    endloop
  endfacet
  facet normal 0 0 -1
    outer loop
      vertex 185.57 4.65 0
      vertex 180.57 15.85 0
      vertex 185.57 90.13 0
    endloop
  endfacet
  facet normal 0 0 -1
    outer loop
      vertex 114.85 85.13 0
      vertex 180.57 15.85 0
      vertex 114.85 15.85 0
    endloop
  endfacet
  facet normal 0 0 -1
    outer loop
      vertex 180.57 15.85 0
      vertex 114.85 85.13 0
      vertex 185.57 90.13 0
    endloop
  endfacet
  facet normal 0 0 -1
    outer loop
      vertex 103.65 90.13 0
      vertex 114.85 85.13 0
      vertex 108.65 85.13 0
    endloop
  endfacet
  facet normal 0 0 -1
    outer loop
      vertex 114.85 85.13 0
      vertex 103.65 90.13 0
      vertex 185.57 90.13 0
    endloop
  endfacet
  facet normal 0 0 -1
    outer loop
      vertex 103.65 90.13 0
      vertex 108.65 85.13 0
      vertex 103.65 4.65 0
    endloop
  endfacet
  facet normal 0 -1 0
    outer loop
      vertex 103.65 4.65 0
      vertex 185.57 4.65 2
      vertex 103.65 4.65 2
    endloop
  endfacet
  facet normal 0 -1 -0
    outer loop
      vertex 185.57 4.65 2
      vertex 103.65 4.65 0
      vertex 185.57 4.65 0
    endloop
  endfacet
  facet normal 1 -0 0
    outer loop
      vertex 108.65 9.65 2
      vertex 108.65 85.13 0
      vertex 108.65 85.13 2
    endloop
  endfacet
  facet normal 1 0 0
    outer loop
      vertex 108.65 85.13 0
      vertex 108.65 9.65 2
      vertex 108.65 9.65 0
    endloop
  endfacet
  facet normal -1 0 0
    outer loop
      vertex 180.57 9.65 0
      vertex 180.57 15.85 2
      vertex 180.57 15.85 0
    endloop
  endfacet
  facet normal -1 -0 0
    outer loop
      vertex 180.57 15.85 2
      vertex 180.57 9.65 0
      vertex 180.57 9.65 2
    endloop
  endfacet
  facet normal 0 -1 0
    outer loop
      vertex 114.85 15.85 0
      vertex 180.57 15.85 2
      vertex 114.85 15.85 2
    endloop
  endfacet
  facet normal 0 -1 -0
    outer loop
      vertex 180.57 15.85 2
      vertex 114.85 15.85 0
      vertex 180.57 15.85 0
    endloop
  endfacet
  facet normal 0 1 -0
    outer loop
      vertex 180.57 9.65 0
      vertex 108.65 9.65 2
      vertex 180.57 9.65 2
    endloop
  endfacet
  facet normal 0 1 0
    outer loop
      vertex 108.65 9.65 2
      vertex 180.57 9.65 0
      vertex 108.65 9.65 0
    endloop
  endfacet
  facet normal -1 0 0
    outer loop
      vertex 114.85 15.85 0
      vertex 114.85 85.13 2
      vertex 114.85 85.13 0
    endloop
  endfacet
  facet normal -1 -0 0
    outer loop
      vertex 114.85 85.13 2
      vertex 114.85 15.85 0
      vertex 114.85 15.85 2
    endloop
  endfacet
  facet normal 0 -1 0
    outer loop
      vertex 108.65 85.13 0
      vertex 114.85 85.13 2
      vertex 108.65 85.13 2
    endloop
  endfacet
  facet normal 0 -1 -0
    outer loop
      vertex 114.85 85.13 2
      vertex 108.65 85.13 0
      vertex 114.85 85.13 0
    endloop
  endfacet
  facet normal -1 0 0
    outer loop
      vertex 19.65 4.65 0
      vertex 19.65 100.07 20
      vertex 19.65 100.07 0
    endloop
  endfacet
  facet normal -1 -0 0
    outer loop
      vertex 19.65 100.07 20
      vertex 19.65 4.65 0
      vertex 19.65 4.65 20
    endloop
  endfacet
  facet normal -0 0 1
    outer loop
      vertex 19.65 100.07 20
      vertex 21.65 4.65 20
      vertex 21.65 100.07 20
    endloop
  endfacet
  facet normal 0 0 1
    outer loop
      vertex 21.65 4.65 20
      vertex 19.65 100.07 20
      vertex 19.65 4.65 20
    endloop
  endfacet
  facet normal -0 0 1
    outer loop
      vertex 48.6 100.07 20
      vertex 50.4 4.65 20
      vertex 50.4 100.07 20
    endloop
  endfacet
  facet normal 0 0 1
    outer loop
      vertex 50.4 4.65 20
      vertex 48.6 100.07 20
      vertex 48.6 4.65 20
    endloop
  endfacet
  facet normal 1 -0 0
    outer loop
      vertex 50.4 4.65 20
      vertex 50.4 100.07 2
      vertex 50.4 100.07 20
    endloop
  endfacet
  facet normal 1 0 0
    outer loop
      vertex 50.4 100.07 2
      vertex 50.4 4.65 20
      vertex 50.4 4.65 2
    endloop
  endfacet
  facet normal 0 1 0
    outer loop
      vertex 70.4 100.07 2
      vertex 70.4 100.07 0
      vertex 50.4 100.07 2
    endloop
  endfacet
  facet normal 0 1 0
    outer loop
      vertex 50.4 100.07 20
      vertex 48.6 100.07 5
      vertex 48.6 100.07 20
    endloop
  endfacet
  facet normal 0 1 0
    outer loop
      vertex 19.65 100.07 0
      vertex 48.6 100.07 5
      vertex 50.4 100.07 2
    endloop
  endfacet
  facet normal 0 1 -0
    outer loop
      vertex 50.4 100.07 2
      vertex 48.6 100.07 5
      vertex 50.4 100.07 20
    endloop
  endfacet
  facet normal 0 1 -0
    outer loop
      vertex 21.65 100.07 5
      vertex 19.65 100.07 20
      vertex 21.65 100.07 20
    endloop
  endfacet
  facet normal 0 1 0
    outer loop
      vertex 21.65 100.07 5
      vertex 19.65 100.07 0
      vertex 19.65 100.07 20
    endloop
  endfacet
  facet normal 0 1 0
    outer loop
      vertex 48.6 100.07 5
      vertex 19.65 100.07 0
      vertex 21.65 100.07 5
    endloop
  endfacet
  facet normal 0 1 0
    outer loop
      vertex 19.65 100.07 0
      vertex 50.4 100.07 2
      vertex 70.4 100.07 0
    endloop
  endfacet
  facet normal 0 0 -1
    outer loop
      vertex 70.4 4.65 0
      vertex 64.6 9.65 0
      vertex 70.4 100.07 0
    endloop
  endfacet
  facet normal 0 0 -1
    outer loop
      vertex 70.4 4.65 0
      vertex 58.4 9.65 0
      vertex 64.6 9.65 0
    endloop
  endfacet
  facet normal -0 0 -1
    outer loop
      vertex 58.4 9.65 0
      vertex 19.65 4.65 0
      vertex 58.4 95.07 0
    endloop
  endfacet
  facet normal 0 0 -1
    outer loop
      vertex 19.65 4.65 0
      vertex 58.4 9.65 0
      vertex 70.4 4.65 0
    endloop
  endfacet
  facet normal 0 0 -1
    outer loop
      vertex 64.6 95.07 0
      vertex 70.4 100.07 0
      vertex 64.6 9.65 0
    endloop
  endfacet
  facet normal 0 0 -1
    outer loop
      vertex 58.4 95.07 0
      vertex 70.4 100.07 0
      vertex 64.6 95.07 0
    endloop
  endfacet
  facet normal 0 0 -1
    outer loop
      vertex 58.4 95.07 0
      vertex 19.65 100.07 0
      vertex 70.4 100.07 0
    endloop
  endfacet
  facet normal 0 0 -1
    outer loop
      vertex 19.65 100.07 0
      vertex 58.4 95.07 0
      vertex 19.65 4.65 0
    endloop
  endfacet
  facet normal 0 -1 0
    outer loop
      vertex 19.65 4.65 20
      vertex 21.65 4.65 5
      vertex 21.65 4.65 20
    endloop
  endfacet
  facet normal 0 -1 0
    outer loop
      vertex 19.65 4.65 0
      vertex 48.6 4.65 5
      vertex 21.65 4.65 5
    endloop
  endfacet
  facet normal 0 -1 0
    outer loop
      vertex 19.65 4.65 0
      vertex 21.65 4.65 5
      vertex 19.65 4.65 20
    endloop
  endfacet
  facet normal 0 -1 -0
    outer loop
      vertex 48.6 4.65 5
      vertex 19.65 4.65 0
      vertex 50.4 4.65 2
    endloop
  endfacet
  facet normal 0 -1 0
    outer loop
      vertex 70.4 4.65 0
      vertex 50.4 4.65 2
      vertex 19.65 4.65 0
    endloop
  endfacet
  facet normal 0 -1 0
    outer loop
      vertex 50.4 4.65 2
      vertex 70.4 4.65 0
      vertex 70.4 4.65 2
    endloop
  endfacet
  facet normal 0 -1 0
    outer loop
      vertex 48.6 4.65 5
      vertex 50.4 4.65 20
      vertex 48.6 4.65 20
    endloop
  endfacet
  facet normal 0 -1 -0
    outer loop
      vertex 50.4 4.65 20
      vertex 48.6 4.65 5
      vertex 50.4 4.65 2
    endloop
  endfacet
  facet normal 1 0 0
    outer loop
      vertex 21.65 100.07 20
      vertex 21.65 98.27 5
      vertex 21.65 100.07 5
    endloop
  endfacet
  facet normal 1 0 0
    outer loop
      vertex 21.65 98.27 5
      vertex 21.65 6.65 5
      vertex 21.65 98.27 2
    endloop
  endfacet
  facet normal 1 0 0
    outer loop
      vertex 21.65 100.07 20
      vertex 21.65 6.65 5
      vertex 21.65 98.27 5
    endloop
  endfacet
  facet normal 1 -0 0
    outer loop
      vertex 21.65 4.65 20
      vertex 21.65 6.65 5
      vertex 21.65 100.07 20
    endloop
  endfacet
  facet normal 1 0 0
    outer loop
      vertex 21.65 6.65 5
      vertex 21.65 4.65 20
      vertex 21.65 4.65 5
    endloop
  endfacet
  facet normal 1 0 0
    outer loop
      vertex 21.65 98.27 2
      vertex 21.65 6.65 5
      vertex 21.65 6.65 2
    endloop
  endfacet
  facet normal -1 0 0
    outer loop
      vertex 48.6 98.27 2
      vertex 48.6 6.65 2
      vertex 48.6 98.27 5
    endloop
  endfacet
  facet normal -1 0 0
    outer loop
      vertex 48.6 98.27 5
      vertex 48.6 100.07 20
      vertex 48.6 100.07 5
    endloop
  endfacet
  facet normal -1 0 0
    outer loop
      vertex 48.6 6.65 5
      vertex 48.6 98.27 5
      vertex 48.6 6.65 2
    endloop
  endfacet
  facet normal -1 0 0
    outer loop
      vertex 48.6 98.27 5
      vertex 48.6 6.65 5
      vertex 48.6 100.07 20
    endloop
  endfacet
  facet normal -1 0 0
    outer loop
      vertex 48.6 4.65 20
      vertex 48.6 6.65 5
      vertex 48.6 4.65 5
    endloop
  endfacet
  facet normal -1 0 0
    outer loop
      vertex 48.6 6.65 5
      vertex 48.6 4.65 20
      vertex 48.6 100.07 20
    endloop
  endfacet
  facet normal 0 0 1
    outer loop
      vertex 70.4 100.07 2
      vertex 64.6 95.07 2
      vertex 70.4 4.65 2
    endloop
  endfacet
  facet normal 0 0 1
    outer loop
      vertex 70.4 100.07 2
      vertex 58.4 95.07 2
      vertex 64.6 95.07 2
    endloop
  endfacet
  facet normal 0 0 1
    outer loop
      vertex 58.4 95.07 2
      vertex 50.4 100.07 2
      vertex 58.4 9.65 2
    endloop
  endfacet
  facet normal -0 0 1
    outer loop
      vertex 50.4 100.07 2
      vertex 58.4 95.07 2
      vertex 70.4 100.07 2
    endloop
  endfacet
  facet normal -0 0 1
    outer loop
      vertex 64.6 9.65 2
      vertex 70.4 4.65 2
      vertex 64.6 95.07 2
    endloop
  endfacet
  facet normal -0 0 1
    outer loop
      vertex 58.4 9.65 2
      vertex 70.4 4.65 2
      vertex 64.6 9.65 2
    endloop
  endfacet
  facet normal 0 0 1
    outer loop
      vertex 58.4 9.65 2
      vertex 50.4 4.65 2
      vertex 70.4 4.65 2
    endloop
  endfacet
  facet normal 0 0 1
    outer loop
      vertex 50.4 4.65 2
      vertex 58.4 9.65 2
      vertex 50.4 100.07 2
    endloop
  endfacet
  facet normal -0 0 1
    outer loop
      vertex 21.65 98.27 2
      vertex 48.6 6.65 2
      vertex 48.6 98.27 2
    endloop
  endfacet
  facet normal 0 0 1
    outer loop
      vertex 48.6 6.65 2
      vertex 21.65 98.27 2
      vertex 21.65 6.65 2
    endloop
  endfacet
  facet normal 0 1 -0
    outer loop
      vertex 48.6 6.65 2
      vertex 21.65 6.65 5
      vertex 48.6 6.65 5
    endloop
  endfacet
  facet normal 0 1 0
    outer loop
      vertex 21.65 6.65 5
      vertex 48.6 6.65 2
      vertex 21.65 6.65 2
    endloop
  endfacet
  facet normal 0 -1 0
    outer loop
      vertex 21.65 98.27 2
      vertex 48.6 98.27 5
      vertex 21.65 98.27 5
    endloop
  endfacet
  facet normal 0 -1 -0
    outer loop
      vertex 48.6 98.27 5
      vertex 21.65 98.27 2
      vertex 48.6 98.27 2
    endloop
  endfacet
  facet normal -0 0 1
    outer loop
      vertex 21.65 100.07 5
      vertex 48.6 98.27 5
      vertex 48.6 100.07 5
    endloop
  endfacet
  facet normal 0 0 1
    outer loop
      vertex 48.6 98.27 5
      vertex 21.65 100.07 5
      vertex 21.65 98.27 5
    endloop
  endfacet
  facet normal -0 0 1
    outer loop
      vertex 21.65 6.65 5
      vertex 48.6 4.65 5
      vertex 48.6 6.65 5
    endloop
  endfacet
  facet normal 0 0 1
    outer loop
      vertex 48.6 4.65 5
      vertex 21.65 6.65 5
      vertex 21.65 4.65 5
    endloop
  endfacet
  facet normal 1 -0 0
    outer loop
      vertex 70.4 4.65 2
      vertex 70.4 100.07 0
      vertex 70.4 100.07 2
    endloop
  endfacet
  facet normal 1 0 0
    outer loop
      vertex 70.4 100.07 0
      vertex 70.4 4.65 2
      vertex 70.4 4.65 0
    endloop
  endfacet
  facet normal 1 -0 0
    outer loop
      vertex 58.4 9.65 2
      vertex 58.4 95.07 0
      vertex 58.4 95.07 2
    endloop
  endfacet
  facet normal 1 0 0
    outer loop
      vertex 58.4 95.07 0
      vertex 58.4 9.65 2
      vertex 58.4 9.65 0
    endloop
  endfacet
  facet normal -1 0 0
    outer loop
      vertex 64.6 9.65 0
      vertex 64.6 95.07 2
      vertex 64.6 95.07 0
    endloop
  endfacet
  facet normal -1 -0 0
    outer loop
      vertex 64.6 95.07 2
      vertex 64.6 9.65 0
      vertex 64.6 9.65 2
    endloop
  endfacet
  facet normal 0 -1 0
    outer loop
      vertex 58.4 95.07 0
      vertex 64.6 95.07 2
      vertex 58.4 95.07 2
    endloop
  endfacet
  facet normal 0 -1 -0
    outer loop
      vertex 64.6 95.07 2
      vertex 58.4 95.07 0
      vertex 64.6 95.07 0
    endloop
  endfacet
  facet normal 0 1 -0
    outer loop
      vertex 64.6 9.65 0
      vertex 58.4 9.65 2
      vertex 64.6 9.65 2
    endloop
  endfacet
  facet normal 0 1 0
    outer loop
      vertex 58.4 9.65 2
      vertex 64.6 9.65 0
      vertex 58.4 9.65 0
    endloop
  endfacet
endsolid OpenSCAD_Model
