M48
; DRILL file {KiCad 5.1.7-a382d34a8~88~ubuntu20.04.1} date Wed Mar 10 12:52:43 2021
; FORMAT={-:-/ absolute / metric / decimal}
; #@! TF.CreationDate,2021-03-10T12:52:43+00:00
; #@! TF.GenerationSoftware,Kicad,Pcbnew,5.1.7-a382d34a8~88~ubuntu20.04.1
; #@! TF.FileFunction,Plated,1,2,PTH
FMAT,2
METRIC
T1C0.400
T2C0.800
T3C1.000
T4C1.100
T5C1.200
T6C1.300
T7C1.500
T8C1.600
%
G90
G05
T1
X146.948Y-97.052
X148.5Y-55.0
T2
X126.0Y-105.92
X126.0Y-108.46
X126.0Y-111.0
X130.0Y-62.5
X130.0Y-65.04
X130.0Y-67.58
X130.0Y-70.12
X137.62Y-62.5
X137.62Y-65.04
X137.62Y-67.58
X137.62Y-70.12
X133.5Y-76.5
X133.5Y-79.04
X133.5Y-81.58
X144.5Y-112.5
X149.5Y-112.5
X123.0Y-63.42
X123.0Y-65.96
X123.0Y-68.5
X145.5Y-63.0
X150.5Y-63.0
X117.5Y-117.5
X117.5Y-122.5
X136.5Y-119.0
X136.5Y-121.54
X136.5Y-124.08
X132.0Y-105.0
X132.0Y-107.54
X132.0Y-110.08
X132.0Y-112.62
X139.62Y-105.0
X139.62Y-107.54
X139.62Y-110.08
X139.62Y-112.62
X145.5Y-68.0
X150.5Y-68.0
X109.5Y-74.5
X114.5Y-74.5
X144.5Y-107.5
X149.5Y-107.5
T3
X111.5Y-80.5
X111.5Y-83.04
X114.5Y-128.0
X114.5Y-130.54
X161.0Y-124.5
X161.0Y-127.04
X143.0Y-38.5
X148.0Y-38.5
X124.0Y-46.5
X124.0Y-51.5
X161.5Y-80.0
X161.5Y-82.54
T4
X117.0Y-57.0
X117.0Y-67.16
X154.84Y-68.5
X165.0Y-68.5
X153.34Y-110.5
X163.5Y-110.5
X153.34Y-105.0
X163.5Y-105.0
X154.84Y-63.0
X165.0Y-63.0
X120.0Y-41.0
X121.7Y-37.3
X123.4Y-41.0
X125.1Y-37.3
X126.8Y-41.0
X154.84Y-74.0
X165.0Y-74.0
X119.0Y-103.5
X119.0Y-113.66
X153.34Y-116.5
X163.5Y-116.5
T5
X152.0Y-51.5
X164.7Y-51.5
X152.3Y-47.0
X165.0Y-47.0
X143.5Y-118.5
X143.5Y-131.2
X145.5Y-57.5
X158.2Y-57.5
X127.5Y-99.0
X140.2Y-99.0
X125.0Y-72.3
X125.0Y-85.0
X145.0Y-99.0
X157.7Y-99.0
X149.0Y-118.3
X149.0Y-131.0
X123.0Y-117.8
X123.0Y-130.5
X119.5Y-72.3
X119.5Y-85.0
X148.5Y-72.8
X148.5Y-85.5
X142.5Y-72.5
X142.5Y-85.2
X110.5Y-56.5
X110.5Y-69.2
X112.5Y-103.0
X112.5Y-115.7
X128.0Y-57.5
X140.7Y-57.5
X129.0Y-117.8
X129.0Y-130.5
T6
X134.5Y-39.0
X134.5Y-42.5
T7
X142.0Y-91.5
X147.45Y-91.5
X152.9Y-91.5
X140.5Y-138.0
X145.95Y-138.0
X151.4Y-138.0
X120.5Y-138.0
X125.95Y-138.0
X131.4Y-138.0
X118.5Y-91.5
X123.95Y-91.5
X129.4Y-91.5
T8
X132.5Y-49.0
X147.74Y-49.0
T3
G00X108.5Y-48.25
M15
G01X108.5Y-45.75
M16
G05
G00X110.25Y-51.7
M15
G01X112.75Y-51.7
M16
G05
G00X114.5Y-48.25
M15
G01X114.5Y-45.75
M16
G05
T0
M30
